<?xml version="1.0" standalone="no"?>
<!DOCTYPE svg PUBLIC "-//W3C//DTD SVG 20010904//EN"
 "http://www.w3.org/TR/2001/REC-SVG-20010904/DTD/svg10.dtd">
<svg version="1.0" xmlns="http://www.w3.org/2000/svg"
 width="1024.000000pt" height="1024.000000pt" viewBox="0 0 1024.000000 1024.000000"
 preserveAspectRatio="xMidYMid meet">
<metadata>
Created by potrace 1.11, written by Peter Selinger 2001-2013
</metadata>
<g transform="translate(0.000000,1024.000000) scale(0.100000,-0.100000)"
fill="#000000" stroke="none">
<path d="M4848 10235 c-2 -1 -46 -5 -98 -9 -143 -10 -326 -31 -445 -51 -58 -9
-93 -15 -120 -19 -42 -7 -84 -15 -125 -26 -19 -5 -46 -11 -60 -14 -135 -24
-501 -133 -685 -203 -241 -92 -552 -239 -742 -351 -54 -32 -105 -61 -113 -65
-20 -9 -261 -170 -346 -232 -534 -385 -1037 -932 -1379 -1499 -181 -302 -343
-646 -455 -971 -69 -202 -140 -458 -174 -635 -2 -14 -9 -47 -15 -75 -6 -27
-12 -63 -15 -80 -2 -16 -9 -59 -14 -95 -17 -105 -21 -134 -27 -196 -4 -32 -8
-70 -10 -83 -26 -153 -26 -857 0 -1012 2 -13 6 -51 10 -84 3 -33 8 -76 10 -95
11 -75 27 -176 31 -200 3 -14 7 -38 9 -55 6 -39 13 -73 19 -93 3 -9 8 -33 11
-52 6 -36 59 -251 75 -305 34 -116 103 -333 111 -350 5 -11 24 -60 43 -110
119 -314 297 -660 493 -960 80 -121 278 -392 338 -460 14 -16 49 -57 78 -90
254 -293 516 -532 892 -813 79 -59 358 -236 455 -290 90 -50 347 -179 430
-217 150 -68 404 -164 555 -209 50 -15 101 -31 115 -36 28 -10 141 -39 179
-47 14 -2 27 -6 31 -8 25 -16 464 -94 615 -110 33 -4 76 -8 95 -10 229 -26
875 -26 1009 0 9 2 47 6 83 9 37 4 75 8 85 10 10 2 38 7 63 10 25 3 54 8 65
10 11 2 40 7 65 11 179 29 469 97 580 135 14 5 59 18 100 31 258 76 653 246
925 398 50 28 97 54 105 58 18 8 118 71 265 168 99 66 289 203 340 247 11 9
52 43 90 74 128 103 309 275 470 445 374 394 727 929 940 1424 21 50 42 94 47
99 4 6 8 16 8 24 0 7 8 32 19 55 99 222 249 755 287 1017 3 19 7 46 9 60 12
62 23 148 31 225 3 33 7 71 10 85 25 156 25 850 0 1000 -3 14 -7 52 -10 85 -8
77 -15 133 -21 165 -3 14 -7 43 -11 65 -4 32 -28 166 -49 275 -36 185 -159
584 -249 807 -79 195 -89 216 -191 418 -176 346 -345 607 -589 910 -181 224
-476 527 -666 681 -19 16 -37 31 -40 35 -10 11 -236 185 -302 232 -171 121
-376 248 -553 342 -49 27 -97 52 -105 57 -57 32 -302 140 -435 193 -317 125
-683 229 -966 275 -35 5 -73 12 -84 14 -11 2 -45 7 -75 11 -30 4 -62 9 -70 10
-22 4 -107 14 -176 20 -33 4 -83 8 -110 11 -52 5 -661 14 -666 9z"/>
</g>
</svg>
